:FULLY-SPECIFIED
:FORCE-ALL-JOINTS-BE-3DOF
:DEGREES
340
root 8.22718 16.039 -20.5453 11.1671 24.8872 4.73208
lfemur -10.8846 19.2911 -10.947
ltibia 41.8491 -0 0
lfoot 3.23925 25.6318 -0.549211
ltoes -33.8412 0 0
rfemur -46.5914 -12.4781 5.81609
rtibia 55.1954 -0 0
rfoot 3.30864 -20.6657 -0.395063
rtoes 10.8809 -0 0
lowerback -0.634862 -1.88589 -1.86693
upperback 1.79451 -2.47339 -0.0156839
thorax 2.26998 -1.27606 0.956458
lowerneck -5.25653 -8.92734 -0.55327
upperneck -2.58243 -11.8576 6.424
head 0.521702 -5.88757 1.82415
lclavicle -3.23025e-014 1.19271e-014 0
lhumerus -47.9815 -35.5875 110.075
lradius 58.0472 -0 0
lwrist 19.0966 0 0
lhand 6.32958 12.6563 0.0362573
lfingers 7.12502 -0 0
lthumb 31.6346 39.9084 0.0258365
rclavicle -3.23025e-014 1.19271e-014 0
rhumerus -20.6794 19.4831 -70.8447
rradius 85.1615 -0 0
rwrist 3.87897 0 0
rhand 18.1808 -7.76515 1.45629
rfingers 7.12502 -0 0
rthumb 42.7625 -30.8326 1.67043
341
root 8.16522 16.0624 -20.3925 10.9028 23.4255 4.2405
lfemur -10.9127 19.1106 -10.3512
ltibia 43.2731 -0 0
lfoot 3.61411 24.5279 -0.657974
ltoes -32.6287 0 0
rfemur -45.9218 -12.5343 6.65098
rtibia 54.7413 -0 0
rfoot 2.43229 -19.9915 -0.548143
rtoes 11.0604 -0 0
lowerback -0.640893 -1.79956 -1.72836
upperback 1.7653 -2.36228 0.120505
thorax 2.23771 -1.2216 1.01931
lowerneck -5.36967 -8.70589 -0.558348
upperneck -2.36653 -11.5739 6.27612
head 0.590904 -5.74061 1.78159
lclavicle -3.23025e-014 1.19271e-014 0
lhumerus -47.8046 -34.8271 109.816
lradius 58.0192 -0 0
lwrist 18.9434 0 0
lhand 5.77427 12.535 0.0429684
lfingers 7.12502 -0 0
lthumb 31.1049 39.8847 0.0295774
rclavicle -3.23025e-014 1.19271e-014 0
rhumerus -21.8897 18.8503 -72.1203
rradius 84.9979 -0 0
rwrist 4.04853 0 0
rhand 15.8559 -9.08731 2.06909
rfingers 7.12502 -0 0
rthumb 40.5517 -32.3975 2.38308
342
root 8.09917 16.0867 -20.2362 10.6212 21.9083 3.73604
lfemur -10.9557 18.9187 -9.71222
ltibia 44.8766 -0 0
lfoot 3.93551 23.1312 -0.729788
ltoes -30.9178 0 0
rfemur -45.241 -12.6587 7.66173
rtibia 54.2654 -0 0
rfoot 1.4734 -19.1195 -0.698876
rtoes 11.1461 -0 0
lowerback -0.605354 -1.70524 -1.59422
upperback 1.74517 -2.24097 0.254624
thorax 2.19112 -1.16159 1.08378
lowerneck -5.49285 -8.47099 -0.560236
upperneck -2.14169 -11.2725 6.13058
head 0.664182 -5.58466 1.7395
lclavicle -3.23025e-014 1.19271e-014 0
lhumerus -47.6215 -34.0505 109.526
lradius 57.9929 -0 0
lwrist 18.7712 0 0
lhand 5.2016 12.3921 0.0472038
lfingers 7.12502 -0 0
lthumb 30.5585 39.8413 0.0312178
rclavicle -3.23025e-014 1.19271e-014 0
rhumerus -23.1504 18.1527 -73.4518
rradius 84.7671 -0 0
rwrist 4.13812 0 0
rhand 13.1746 -10.6239 2.68319
rfingers 7.12502 -0 0
rthumb 37.995 -34.2294 3.10122
343
root 8.02955 16.1117 -20.0771 10.3284 20.3438 3.22402
lfemur -11.018 18.7185 -9.03966
ltibia 46.6303 -0 0
lfoot 4.20521 21.4815 -0.766765
ltoes -28.7696 0 0
rfemur -44.5526 -12.8439 8.82457
rtibia 53.7707 -0 0
rfoot 0.442579 -18.074 -0.839544
rtoes 11.1495 -0 0
lowerback -0.532362 -1.60384 -1.46383
upperback 1.73337 -2.11049 0.386174
thorax 2.13182 -1.09652 1.1488
lowerneck -5.62449 -8.22439 -0.55872
upperneck -1.91009 -10.9555 5.98758
head 0.740686 -5.4209 1.69783
lclavicle -3.23025e-014 1.19271e-014 0
lhumerus -47.4339 -33.2621 109.209
lradius 57.9676 -0 0
lwrist 18.5831 0 0
lhand 4.61259 12.2294 0.0491155
lfingers 7.12502 -0 0
lthumb 29.9964 39.7796 0.0309685
rclavicle -3.23025e-014 1.19271e-014 0
rhumerus -24.4446 17.3955 -74.8224
rradius 84.4739 -0 0
rwrist 4.15748 0 0
rhand 10.185 -12.3509 3.26125
rfingers 7.12502 -0 0
rthumb 35.1362 -36.2987 3.78105
